<svg aria-hidden="true" style="position: absolute; width: 0; height: 0; overflow: hidden;" version="1.1" xmlns="http://www.w3.org/2000/svg" xmlns:xlink="http://www.w3.org/1999/xlink">
    <defs>
        <symbol id="logo" viewBox="0 0 45 32">
            <path d="M7.56 14.66c0.248 0.313 2.245 2.698 5.038 2.22 2.134-0.365 4.228 1.15 4.483 1.342-0.707-0.337-1.947-0.786-3.131-0.355-3.778 1.375-5.679-1.777-6.39-3.207zM7.731 14.547c0.786 0.753 2.462 1.92 4.768 1.111 2.080-0.73 3.706 1.369 4.695 2.394-0.307-0.228-2.45-1.747-4.632-1.374-2.653 0.454-4.554-1.784-4.832-2.131z"></path>
            <path d="M37.241 14.66c-0.248 0.313-2.245 2.698-5.038 2.22-2.134-0.365-4.228 1.15-4.483 1.342 0.707-0.337 1.947-0.786 3.131-0.355 3.778 1.375 5.679-1.777 6.39-3.207zM37.069 14.547c-0.786 0.753-2.462 1.92-4.768 1.111-2.080-0.73-3.706 1.369-4.695 2.394 0.307-0.228 2.45-1.747 4.632-1.374 2.653 0.454 4.554-1.784 4.832-2.131z"></path>
            <path d="M13.757 5.283c0.137 0.585 0.602 1.991 1.972 2.498 1.001 0.37 1.611 1.402 1.839 1.857-0.291-0.379-0.764-0.851-1.414-0.966-2.225-0.392-2.427-2.336-2.397-3.389zM13.953 5.228c0.23 0.647 0.786 1.594 2.109 1.843 1.222 0.23 1.496 1.624 1.697 2.495-0.236-0.471-0.887-1.58-1.959-1.977-1.296-0.479-1.724-1.821-1.847-2.361z"></path>
            <path d="M31.043 5.283c-0.137 0.585-0.602 1.991-1.972 2.498-1.001 0.37-1.611 1.402-1.839 1.857 0.291-0.379 0.764-0.851 1.414-0.966 2.225-0.392 2.427-2.336 2.397-3.389zM30.847 5.228c-0.23 0.647-0.786 1.594-2.109 1.843-1.222 0.23-1.496 1.624-1.697 2.495 0.236-0.471 0.887-1.58 1.959-1.977 1.296-0.479 1.724-1.821 1.847-2.361z"></path>
            <path d="M14.039 14.991c0.559 0.247 2.489 0.956 4.111-0.17 1.205-0.837 2.881-0.634 3.409-0.543-0.608 0.010-1.527 0.132-2.164 0.77-2.090 2.095-4.334 0.73-5.356-0.057zM14.1 14.795c0.815 0.254 2.287 0.448 3.571-0.81 1.162-1.138 2.883-0.32 3.919 0.091-0.558-0.094-2.303-0.295-3.558 0.577-1.568 1.089-3.438 0.367-3.933 0.142z"></path>
            <path d="M30.761 14.991c-0.559 0.247-2.489 0.956-4.111-0.17-1.205-0.837-2.882-0.634-3.409-0.543 0.608 0.010 1.527 0.132 2.164 0.77 2.090 2.095 4.333 0.73 5.356-0.057zM30.7 14.795c-0.815 0.254-2.287 0.448-3.571-0.81-1.162-1.138-2.883-0.32-3.919 0.091 0.558-0.094 2.303-0.295 3.558 0.577 1.568 1.089 3.438 0.367 3.933 0.142z"></path>
            <path d="M26.107 5.88c-0.040-0.099-0.066-0.136-0.092-0.136-0.104 0.001-0.11 0.216-0.031 0.577l0.002 0.016c0.032 0.221 0.334 2.523-2.066 3.565-0.953 0.414-1.304 1.222-1.418 2.057-0.109 0.8 0.003 1.623-0.021 2.113-0.008 0.165-0.006 0.249-0 0.269 0.011 0.036 0.030 0.055 0.044 0.066 0.037 0.028 0.077 0.035 0.121 0.017 0.016-0.006 0.046-0.021 0.068-0.064 0.033-0.063 0.14-0.5 0.412-0.993 0.261-0.474 0.677-1.004 1.338-1.283 1.087-0.458 1.706-1.093 2.035-1.773 0.493-1.018 0.336-2.143 0.104-2.953-0.16-0.558-0.453-1.39-0.498-1.478zM26.117 7.822c-0.090 0.83-0.439 1.992-1.598 2.733-1.096 0.701-1.6 1.926-1.815 2.671-0.014-0.382-0.019-0.811 0.039-1.234 0.103-0.756 0.411-1.492 1.274-1.867 1.32-0.573 1.876-1.502 2.1-2.303zM26.383 7.468c0.211 0.759 0.354 1.797-0.101 2.737-0.309 0.637-0.893 1.226-1.911 1.655-0.66 0.278-1.098 0.783-1.384 1.263 0.226-0.712 0.704-1.75 1.663-2.364 1.425-0.912 1.702-2.419 1.733-3.291z"></path>
            <path d="M18.697 5.88c0.040-0.099 0.066-0.136 0.092-0.136 0.104 0.001 0.11 0.216 0.031 0.577l-0.002 0.016c-0.032 0.221-0.334 2.523 2.066 3.565 0.953 0.414 1.304 1.222 1.418 2.057 0.109 0.8-0.003 1.623 0.021 2.113 0.008 0.165 0.006 0.249 0 0.269-0.010 0.036-0.030 0.055-0.044 0.066-0.037 0.028-0.077 0.035-0.122 0.017-0.016-0.006-0.046-0.021-0.068-0.064-0.033-0.063-0.14-0.5-0.412-0.993-0.261-0.474-0.677-1.004-1.338-1.283-1.087-0.458-1.706-1.093-2.035-1.773-0.493-1.018-0.336-2.143-0.104-2.953 0.16-0.558 0.453-1.39 0.498-1.478zM18.687 7.822c0.090 0.83 0.439 1.992 1.598 2.733 1.096 0.701 1.6 1.926 1.815 2.671 0.014-0.382 0.019-0.811-0.039-1.234-0.103-0.756-0.411-1.492-1.274-1.867-1.32-0.573-1.876-1.502-2.1-2.303zM18.42 7.468c-0.211 0.759-0.354 1.797 0.101 2.737 0.309 0.637 0.893 1.226 1.911 1.655 0.66 0.278 1.098 0.783 1.384 1.263-0.226-0.712-0.704-1.75-1.663-2.364-1.425-0.912-1.702-2.419-1.733-3.291z"></path>
            <path d="M26.34 12.535l-0.865 0.371c-0.056 0.024-0.082 0.089-0.058 0.145s0.089 0.082 0.145 0.058l0.865-0.371c0.198 0.115 0.957 0.518 2.172 0.69 1.54 0.218 3.072-0.44 3.975-1.706 0.818-1.148 1.682-2.362 1.682-2.362l0.001-0.001c0.010-0.015 0.017-0.031 0.019-0.048l0-0.001c0.002-0.018 0-0.036-0.007-0.054l-0.001-0.002-0.001-0.001-0.001-0.003-0-0.001c-0.008-0.017-0.020-0.031-0.034-0.042l-0.001-0.001c-0.014-0.010-0.030-0.017-0.048-0.020l-0.001-0c0 0-1.476-0.209-2.871-0.407-1.54-0.218-3.072 0.44-3.974 1.706-0.712 0.999-0.943 1.827-0.996 2.050zM30.86 12.874c-0.682 0.32-1.455 0.445-2.229 0.335-0.969-0.137-1.637-0.426-1.943-0.582l1.95-0.837 2.222 1.084zM32.63 11.262l-1.413-0.579-2.311 0.992 2.188 1.067c0.004 0.002 0.008 0.004 0.011 0.006 0.501-0.28 0.943-0.67 1.288-1.154l0.236-0.332zM29.261 9.242c-0.688 0.276-1.298 0.745-1.744 1.372-0.568 0.797-0.819 1.48-0.917 1.81l1.916-0.822c0.001-0.002 0.001-0.004 0.002-0.006l0.743-2.353zM31.585 9.042l-0.306-0.043c-0.6-0.085-1.2-0.030-1.756 0.149l-0.738 2.338 2.307-0.99c0.001-0.003 0.002-0.006 0.003-0.008l0.491-1.445zM31.502 10.56l1.26 0.516 1.084-1.523-2.344 1.006zM31.365 10.378l2.394-1.028-1.95-0.277-0.444 1.304z"></path>
            <path d="M18.46 12.535l0.865 0.371c0.056 0.024 0.082 0.089 0.058 0.145s-0.089 0.082-0.145 0.058l-0.865-0.371c-0.198 0.115-0.957 0.518-2.172 0.69-1.54 0.218-3.072-0.44-3.975-1.706-0.818-1.148-1.682-2.362-1.682-2.362l-0.001-0.001c-0.010-0.015-0.016-0.031-0.019-0.048l-0-0.001c-0.002-0.018-0-0.036 0.007-0.054l0.001-0.002 0.001-0.001 0.001-0.003 0-0.001c0.008-0.017 0.020-0.031 0.034-0.042l0.001-0.001c0.014-0.010 0.030-0.017 0.048-0.020l0.001-0c0 0 1.476-0.209 2.871-0.407 1.54-0.218 3.072 0.44 3.974 1.706 0.712 0.999 0.943 1.827 0.996 2.050zM13.94 12.874c0.682 0.32 1.455 0.445 2.229 0.335 0.969-0.137 1.637-0.426 1.944-0.582l-1.95-0.837-2.222 1.084zM12.17 11.262l1.413-0.579 2.311 0.992-2.188 1.067c-0.004 0.002-0.008 0.004-0.011 0.006-0.501-0.28-0.943-0.67-1.288-1.154l-0.236-0.332zM15.539 9.242c0.688 0.276 1.298 0.745 1.744 1.372 0.568 0.797 0.819 1.48 0.917 1.81l-1.916-0.822c-0.001-0.002-0.001-0.004-0.002-0.006l-0.743-2.353zM13.215 9.042l0.306-0.043c0.6-0.085 1.2-0.030 1.756 0.149l0.738 2.338-2.307-0.99c-0.001-0.003-0.002-0.006-0.002-0.008l-0.492-1.445zM13.298 10.56l-1.26 0.516-1.084-1.523 2.344 1.006zM13.435 10.378l-2.394-1.028 1.95-0.277 0.444 1.304z"></path>
            <path d="M17.626 7.115c-0.116-0.018-0.39-0.075-0.725-0.259-0.489-0.268-0.789-0.786-0.776-1.344l0.027-1.171 1.028 0.562c0.489 0.268 0.789 0.786 0.776 1.344-0.009 0.382-0.095 0.647-0.138 0.757l0.143 0.247c0.030 0.053 0.012 0.12-0.040 0.151s-0.12 0.012-0.151-0.040l-0.143-0.247zM17.668 6.746c0.031-0.122 0.062-0.293 0.067-0.504 0.011-0.475-0.244-0.917-0.661-1.145l-0.709-0.388-0.019 0.808c-0.011 0.475 0.244 0.917 0.661 1.145 0.185 0.101 0.348 0.16 0.47 0.194l-0.766-1.327c-0.030-0.053-0.012-0.12 0.040-0.151s0.12-0.012 0.151 0.040l0.766 1.327z"></path>
            <path d="M26.983 7.004c-0.043-0.109-0.13-0.375-0.138-0.757-0.013-0.558 0.287-1.076 0.776-1.344l1.028-0.562 0.027 1.171c0.013 0.558-0.287 1.076-0.776 1.344-0.335 0.183-0.608 0.241-0.725 0.259l-0.143 0.247c-0.030 0.053-0.098 0.071-0.151 0.040s-0.071-0.098-0.040-0.151l0.143-0.247zM27.323 6.856c0.122-0.034 0.285-0.093 0.47-0.194 0.417-0.228 0.672-0.67 0.661-1.145l-0.018-0.808-0.709 0.388c-0.417 0.228-0.672 0.67-0.661 1.145 0.005 0.21 0.035 0.381 0.067 0.504l0.766-1.327c0.030-0.053 0.098-0.071 0.151-0.040s0.071 0.098 0.040 0.151l-0.766 1.327z"></path>
            <path d="M22.4 15.179c-0.38-0.733-1.14-0.733-1.52-0.366s-0.38 1.099 0 1.831c0.266 0.549 0.95 1.099 1.52 1.465 0.57-0.366 1.254-0.916 1.52-1.465 0.38-0.732 0.38-1.465 0-1.831s-1.14-0.366-1.52 0.366zM22.4 15.749c0.193-0.373 0.58-0.373 0.774-0.187s0.193 0.559 0 0.932c-0.135 0.28-0.484 0.559-0.774 0.746-0.29-0.186-0.639-0.466-0.774-0.746-0.193-0.373-0.193-0.746 0-0.932s0.58-0.186 0.774 0.187z"></path>
            <path d="M19.75 8.598c0 0-0.071-0.168-0.046-0.437 0.016-0.171 0.075-0.379 0.215-0.609 0.152-0.25 0.411-0.498 0.809-0.77 0.123-0.085 0.258-0.17 0.41-0.256 0.114-0.073 0.221-0.144 0.316-0.224 0.106-0.088 0.199-0.18 0.279-0.276 0.295-0.353 0.453-0.712 0.535-1.050 0.105-0.435 0.075-0.82 0.009-1.134-0.088-0.419-0.237-0.689-0.237-0.689-0.005-0.011-0.018-0.015-0.029-0.010s-0.015 0.018-0.010 0.029c0 0 0.148 0.359 0.112 0.86-0.018 0.246-0.093 0.516-0.237 0.8-0.128 0.253-0.335 0.488-0.615 0.738-0.076 0.068-0.158 0.137-0.244 0.209-0.080 0.067-0.161 0.139-0.253 0.207-0.126 0.104-0.241 0.201-0.341 0.303-0.306 0.312-0.501 0.602-0.628 0.87-0.102 0.216-0.157 0.407-0.186 0.583-0.089 0.544 0.101 0.876 0.101 0.876 0.005 0.011 0.018 0.015 0.029 0.010s0.015-0.018 0.010-0.029z"></path>
            <path d="M25.105 8.617c0 0 0.145-0.264 0.099-0.726-0.021-0.208-0.078-0.447-0.207-0.729-0.093-0.202-0.221-0.416-0.404-0.648-0.088-0.111-0.189-0.223-0.307-0.335-0.069-0.067-0.147-0.129-0.228-0.195-0.070-0.051-0.136-0.104-0.2-0.152-0.070-0.052-0.139-0.099-0.204-0.146-0.403-0.29-0.673-0.535-0.845-0.794-0.118-0.178-0.197-0.343-0.248-0.506-0.063-0.207-0.084-0.399-0.11-0.574-0.001-0.012-0.011-0.021-0.023-0.020s-0.021 0.011-0.020 0.023c-0.005 0.181-0.009 0.378 0.009 0.599 0.022 0.269 0.081 0.561 0.245 0.904 0.133 0.278 0.321 0.584 0.635 0.906 0.102 0.104 0.224 0.2 0.354 0.304 0.2 0.127 0.368 0.255 0.519 0.374 0.312 0.247 0.537 0.455 0.678 0.671 0.147 0.226 0.218 0.426 0.243 0.593 0.040 0.268-0.025 0.433-0.025 0.433-0.005 0.011-0 0.024 0.010 0.029s0.024 0 0.029-0.010z"></path>
            <path d="M22.481 7.822c-0.111-0.515 0.028-0.744 0.254-0.762 0.11-0.008 0.23 0.046 0.335 0.133 0.185 0.152 0.3 0.433 0.183 0.78-0.074 0.241-0.244 0.4-0.439 0.499-0.137 0.069-0.29 0.104-0.442 0.107s-0.306-0.020-0.441-0.086c-0.192-0.093-0.355-0.254-0.421-0.506-0.061-0.22-0.019-0.406 0.072-0.58 0.263-0.504 0.83-0.918 0.77-1.505-0.031 0.398-0.341 0.657-0.64 0.93-0.216 0.198-0.419 0.404-0.532 0.653-0.078 0.172-0.105 0.363-0.076 0.584 0.072 0.485 0.375 0.802 0.747 0.956 0.165 0.069 0.347 0.1 0.529 0.098 0.238-0.003 0.479-0.065 0.686-0.187 0.299-0.175 0.536-0.463 0.616-0.854 0.117-0.671-0.277-1.12-0.676-1.215-0.414-0.099-0.871 0.157-0.527 0.954z"></path>
            <path d="M35.952 12.652c0.152 0.287 0.166 0.622 0.061 0.953-0.15 0.475-0.548 0.946-1.119 1.249s-1.185 0.368-1.662 0.226c-0.334-0.099-0.603-0.299-0.755-0.586s-0.166-0.622-0.061-0.954c0.15-0.475 0.548-0.946 1.119-1.249s1.185-0.368 1.662-0.226c0.334 0.099 0.603 0.299 0.755 0.586l0 0.001zM35.815 12.973c-0.259 0.364-0.721 0.832-1.616 0.72-0.902-0.113-1.279 0.424-1.474 0.745 0.127 0.199 0.331 0.336 0.576 0.409 0.425 0.126 0.971 0.062 1.479-0.208s0.868-0.685 1.002-1.108c0.060-0.19 0.074-0.381 0.033-0.559zM35.702 12.706c-0.127-0.198-0.331-0.335-0.575-0.407-0.425-0.126-0.971-0.062-1.479 0.208s-0.868 0.685-1.002 1.108c-0.059 0.187-0.074 0.375-0.035 0.551 0.248-0.365 0.699-0.827 1.617-0.712 0.872 0.109 1.267-0.427 1.473-0.747z"></path>
            <path d="M8.848 12.652c0.152-0.287 0.421-0.487 0.755-0.586 0.477-0.142 1.091-0.077 1.662 0.226s0.969 0.774 1.119 1.249c0.105 0.332 0.091 0.666-0.061 0.954s-0.421 0.487-0.755 0.586c-0.478 0.142-1.091 0.077-1.662-0.226s-0.969-0.774-1.119-1.249c-0.105-0.332-0.091-0.666 0.061-0.953l0-0.001zM8.985 12.973c-0.041 0.178-0.027 0.369 0.033 0.559 0.134 0.423 0.493 0.838 1.002 1.108s1.054 0.334 1.479 0.208c0.245-0.073 0.449-0.21 0.576-0.409-0.195-0.321-0.572-0.858-1.474-0.745-0.895 0.112-1.357-0.357-1.616-0.72zM12.188 14.165c0.039-0.175 0.024-0.364-0.035-0.551-0.134-0.423-0.493-0.838-1.002-1.108s-1.054-0.334-1.479-0.208c-0.244 0.073-0.448 0.209-0.575 0.407 0.206 0.32 0.601 0.856 1.473 0.747 0.919-0.115 1.369 0.348 1.617 0.712z"></path>
            <path d="M5.294 20.252c0.142 0.1 0.315 0.159 0.501 0.159h33.208c0.19 0 0.366-0.061 0.509-0.164l-0.005 0.003c0.224-0.149 0.379-0.414 0.378-0.714-0.038-10.816-7.889-19.536-17.486-19.536s-17.447 8.72-17.486 19.536c-0.001 0.297 0.149 0.56 0.379 0.715l0.001 0.001zM5.561 19.862l-0-0-0.005-0.004c-0.102-0.070-0.169-0.187-0.168-0.32 0.037-10.541 7.66-19.065 17.013-19.065s16.975 8.523 17.013 19.065c0 0.134-0.067 0.252-0.166 0.319-0.003 0.002-0.005 0.004-0.008 0.006-0.066 0.048-0.147 0.076-0.234 0.076h-33.208c-0.088 0-0.169-0.028-0.235-0.076v0zM38.391 19.14c0.064 0 0.126-0.026 0.17-0.072s0.069-0.108 0.066-0.172c-0.334-9.794-7.464-17.65-16.228-17.65s-15.894 7.856-16.228 17.65c-0.002 0.064 0.022 0.126 0.066 0.172s0.106 0.072 0.17 0.072h31.983zM38.145 18.667h-31.491c0.434-9.413 7.295-16.949 15.745-16.949s15.312 7.536 15.745 16.949z"></path>
            <path d="M4.996 31.024h9.418c0.055 0 0.1-0.057 0.1-0.126s-0.045-0.126-0.1-0.126h-9.418c-0.055 0-0.1 0.056-0.1 0.126s0.045 0.126 0.1 0.126z"></path>
            <path d="M30.386 31.024h9.381c0.055 0 0.1-0.057 0.1-0.126s-0.045-0.126-0.1-0.126h-9.381c-0.055 0-0.1 0.056-0.1 0.126s0.045 0.126 0.1 0.126z"></path>
            <path d="M16.642 29.775c0.247 0 0.44 0.059 0.581 0.177s0.21 0.28 0.21 0.486c0 0.206-0.070 0.368-0.21 0.485s-0.334 0.176-0.581 0.176h-0.52v0.611h-0.205v-1.935h0.724zM16.637 30.919c0.192 0 0.338-0.042 0.439-0.126s0.152-0.202 0.152-0.355c0-0.157-0.051-0.277-0.152-0.361s-0.248-0.126-0.439-0.126h-0.514v0.967h0.514z"></path>
            <path d="M18.328 30.245c0.19 0 0.335 0.047 0.437 0.142s0.152 0.235 0.152 0.421v0.901h-0.188v-0.227c-0.044 0.076-0.109 0.134-0.195 0.177s-0.187 0.064-0.305 0.064c-0.162 0-0.291-0.039-0.387-0.116s-0.144-0.18-0.144-0.307c0-0.123 0.045-0.223 0.134-0.299s0.232-0.113 0.427-0.113h0.462v-0.088c0-0.125-0.035-0.221-0.105-0.286s-0.172-0.098-0.307-0.098c-0.092 0-0.181 0.015-0.265 0.046s-0.157 0.072-0.218 0.126l-0.088-0.147c0.074-0.063 0.162-0.111 0.265-0.145s0.212-0.051 0.326-0.051zM18.259 31.569c0.111 0 0.205-0.025 0.285-0.076s0.138-0.124 0.177-0.22v-0.238h-0.456c-0.249 0-0.373 0.087-0.373 0.26 0 0.085 0.032 0.152 0.097 0.2s0.155 0.073 0.271 0.073z"></path>
            <path d="M19.84 31.724c-0.118 0-0.231-0.017-0.339-0.051s-0.192-0.077-0.253-0.129l0.088-0.155c0.061 0.048 0.137 0.087 0.229 0.117s0.188 0.046 0.288 0.046c0.133 0 0.231-0.021 0.294-0.062s0.095-0.1 0.095-0.175c0-0.053-0.018-0.095-0.053-0.126s-0.079-0.053-0.133-0.069c-0.053-0.016-0.124-0.031-0.213-0.046-0.118-0.022-0.213-0.045-0.285-0.068s-0.133-0.062-0.184-0.118c-0.051-0.055-0.076-0.132-0.076-0.229 0-0.122 0.051-0.221 0.152-0.299s0.242-0.116 0.423-0.116c0.094 0 0.188 0.012 0.282 0.037s0.171 0.058 0.232 0.098l-0.086 0.158c-0.12-0.083-0.263-0.124-0.428-0.124-0.125 0-0.22 0.022-0.283 0.066s-0.095 0.102-0.095 0.174c0 0.055 0.018 0.099 0.054 0.133s0.081 0.058 0.134 0.073c0.053 0.016 0.127 0.032 0.221 0.048 0.116 0.022 0.209 0.044 0.279 0.066s0.13 0.060 0.18 0.113c0.050 0.053 0.075 0.127 0.075 0.221 0 0.127-0.053 0.228-0.159 0.303s-0.253 0.112-0.441 0.112z"></path>
            <path d="M21.568 31.622c-0.037 0.033-0.082 0.058-0.137 0.076s-0.111 0.026-0.17 0.026c-0.136 0-0.241-0.037-0.315-0.111s-0.111-0.178-0.111-0.312v-0.879h-0.26v-0.166h0.26v-0.318h0.196v0.318h0.442v0.166h-0.442v0.868c0 0.087 0.022 0.152 0.065 0.198s0.106 0.068 0.187 0.068c0.041 0 0.080-0.006 0.117-0.019s0.070-0.031 0.098-0.055l0.069 0.141z"></path>
            <path d="M23.138 31.044h-1.216c0.011 0.151 0.069 0.273 0.174 0.366s0.238 0.14 0.398 0.14c0.090 0 0.173-0.016 0.249-0.048s0.141-0.080 0.196-0.142l0.111 0.127c-0.064 0.077-0.145 0.136-0.242 0.177s-0.203 0.061-0.319 0.061c-0.149 0-0.282-0.032-0.397-0.095s-0.205-0.152-0.269-0.264c-0.064-0.112-0.097-0.24-0.097-0.381s0.031-0.269 0.093-0.381c0.062-0.112 0.146-0.2 0.254-0.263s0.229-0.094 0.363-0.094c0.135 0 0.255 0.031 0.362 0.094s0.191 0.15 0.252 0.261c0.061 0.111 0.091 0.239 0.091 0.383l-0.003 0.061zM22.436 30.414c-0.14 0-0.258 0.045-0.352 0.134s-0.149 0.206-0.162 0.35h1.031c-0.013-0.144-0.067-0.26-0.162-0.35s-0.213-0.134-0.355-0.134z"></path>
            <path d="M23.542 31.71h0.196v-2.051h-0.196v2.051z"></path>
            <path d="M25.551 31.044h-1.216c0.011 0.151 0.069 0.273 0.174 0.366s0.238 0.14 0.398 0.14c0.090 0 0.173-0.016 0.249-0.048s0.141-0.080 0.196-0.142l0.111 0.127c-0.064 0.077-0.145 0.136-0.242 0.177s-0.203 0.061-0.319 0.061c-0.149 0-0.282-0.032-0.397-0.095s-0.205-0.152-0.27-0.264c-0.064-0.112-0.097-0.24-0.097-0.381s0.031-0.269 0.093-0.381c0.062-0.112 0.147-0.2 0.254-0.263s0.229-0.094 0.363-0.094c0.135 0 0.255 0.031 0.362 0.094s0.191 0.15 0.252 0.261c0.061 0.111 0.091 0.239 0.091 0.383l-0.003 0.061zM24.849 30.414c-0.14 0-0.258 0.045-0.352 0.134s-0.149 0.206-0.162 0.35h1.031c-0.013-0.144-0.067-0.26-0.162-0.35s-0.213-0.134-0.355-0.134z"></path>
            <path d="M26.143 30.541c0.046-0.098 0.115-0.171 0.206-0.221s0.204-0.075 0.339-0.075v0.191l-0.047-0.003c-0.153 0-0.273 0.047-0.359 0.141s-0.13 0.226-0.13 0.395v0.741h-0.196v-1.454h0.188v0.285z"></path>
            <path d="M27.041 31.71h0.196v-1.454h-0.196v1.454z"></path>
            <path d="M27.642 29.444c0-0.035 0.005 0.265-0.352 0.293-0.235 0.019-0.239 0.261-0.271 0.356s0.048-0.133 0.27-0.148c0.484-0.034 0.352-0.466 0.352-0.501z"></path>
            <path d="M28.293 30.245c0.19 0 0.335 0.047 0.437 0.142s0.152 0.235 0.152 0.421v0.901h-0.188v-0.227c-0.044 0.076-0.109 0.134-0.195 0.177s-0.187 0.064-0.305 0.064c-0.162 0-0.291-0.039-0.387-0.116s-0.144-0.18-0.144-0.307c0-0.123 0.045-0.223 0.134-0.299s0.232-0.113 0.427-0.113h0.462v-0.088c0-0.125-0.035-0.221-0.105-0.286s-0.172-0.098-0.307-0.098c-0.092 0-0.181 0.015-0.265 0.046s-0.158 0.072-0.218 0.126l-0.088-0.147c0.074-0.063 0.162-0.111 0.265-0.145s0.212-0.051 0.326-0.051zM28.224 31.569c0.111 0 0.205-0.025 0.285-0.076s0.138-0.124 0.177-0.22v-0.238h-0.456c-0.249 0-0.373 0.087-0.373 0.26 0 0.085 0.032 0.152 0.097 0.2s0.155 0.073 0.271 0.073z"></path>
            <path d="M5.544 27.666c0.021 0 0.031 0.016 0.031 0.047s-0.010 0.047-0.031 0.047c-0.099 0-0.253-0.005-0.463-0.016s-0.363-0.016-0.463-0.016c-0.12 0-0.269 0.005-0.447 0.016-0.167 0.010-0.298 0.016-0.392 0.016-0.021 0-0.031-0.016-0.031-0.047s0.010-0.047 0.031-0.047c0.188 0 0.323-0.017 0.404-0.051s0.122-0.095 0.122-0.184c0-0.078-0.037-0.196-0.11-0.353l-0.674-1.412h-1.874l-0.463 1.074c-0.068 0.157-0.102 0.301-0.102 0.431 0 0.329 0.254 0.494 0.761 0.494 0.026 0 0.039 0.016 0.039 0.047s-0.013 0.047-0.039 0.047c-0.094 0-0.23-0.005-0.408-0.016-0.199-0.011-0.371-0.016-0.518-0.016-0.131 0-0.29 0.005-0.478 0.016-0.157 0.010-0.29 0.016-0.4 0.016-0.026 0-0.039-0.016-0.039-0.047s0.013-0.047 0.039-0.047c0.146 0 0.271-0.027 0.373-0.082s0.2-0.153 0.294-0.294c0.094-0.141 0.199-0.348 0.314-0.62l1.655-3.874c0.010-0.016 0.031-0.024 0.063-0.024s0.050 0.008 0.055 0.024l1.866 3.889c0.178 0.382 0.329 0.64 0.455 0.776s0.269 0.204 0.431 0.204zM1.717 25.502h1.725l-0.91-1.898-0.816 1.898z"></path>
            <path d="M11.402 27.666c0.021 0 0.031 0.016 0.031 0.047s-0.011 0.047-0.031 0.047c-0.12 0-0.217-0.003-0.29-0.008l-0.439-0.008-0.423 0.008c-0.073 0.005-0.175 0.008-0.306 0.008-0.010 0-0.016-0.016-0.016-0.047s0.005-0.047 0.016-0.047c0.199 0 0.329-0.035 0.392-0.106s0.094-0.216 0.094-0.435v-1.223c0-0.308-0.054-0.536-0.161-0.682s-0.273-0.22-0.498-0.22c-0.152 0-0.305 0.042-0.459 0.125s-0.294 0.196-0.42 0.337v1.663c0 0.22 0.031 0.365 0.094 0.435s0.193 0.106 0.392 0.106c0.010 0 0.016 0.016 0.016 0.047s-0.005 0.047-0.016 0.047c-0.131 0-0.233-0.003-0.306-0.008l-0.431-0.008-0.423 0.008c-0.073 0.005-0.173 0.008-0.298 0.008-0.016 0-0.024-0.016-0.024-0.047s0.008-0.047 0.024-0.047c0.193 0 0.321-0.035 0.384-0.106s0.094-0.216 0.094-0.435v-1.223c0-0.308-0.054-0.536-0.161-0.682s-0.273-0.22-0.498-0.22c-0.152 0-0.302 0.039-0.451 0.118s-0.286 0.188-0.412 0.329v1.678c0 0.152 0.012 0.265 0.035 0.341s0.069 0.128 0.137 0.157c0.068 0.029 0.17 0.043 0.306 0.043 0.016 0 0.024 0.016 0.024 0.047s-0.008 0.047-0.024 0.047c-0.131 0-0.233-0.003-0.306-0.008l-0.423-0.008-0.424 0.008c-0.073 0.005-0.173 0.008-0.298 0.008-0.016 0-0.024-0.016-0.024-0.047s0.008-0.047 0.024-0.047c0.136 0 0.237-0.014 0.302-0.043s0.11-0.081 0.133-0.157 0.035-0.189 0.035-0.341v-1.537c0-0.173-0.021-0.298-0.063-0.376s-0.11-0.118-0.204-0.118c-0.078 0-0.217 0.039-0.416 0.118h-0.008c-0.021 0-0.037-0.012-0.047-0.035s-0.005-0.041 0.016-0.051l0.941-0.455 0.047-0.008c0.052 0 0.103 0.059 0.153 0.177s0.077 0.273 0.082 0.467c0.361-0.439 0.745-0.659 1.153-0.659 0.235 0 0.426 0.059 0.572 0.177s0.238 0.289 0.274 0.514c0.193-0.235 0.387-0.409 0.58-0.521s0.395-0.169 0.604-0.169c0.277 0 0.49 0.081 0.639 0.243s0.223 0.403 0.223 0.721v1.514c0 0.152 0.012 0.265 0.035 0.341s0.069 0.128 0.137 0.157c0.068 0.029 0.17 0.043 0.306 0.043z"></path>
            <path d="M13.386 27.862c-0.308 0-0.579-0.075-0.812-0.224s-0.413-0.35-0.541-0.604c-0.128-0.254-0.192-0.529-0.192-0.827 0-0.34 0.084-0.629 0.251-0.866s0.38-0.416 0.639-0.533c0.259-0.118 0.524-0.177 0.796-0.177 0.308 0 0.579 0.076 0.812 0.227s0.412 0.352 0.537 0.6c0.125 0.248 0.188 0.511 0.188 0.788 0 0.324-0.076 0.608-0.227 0.851s-0.355 0.431-0.612 0.565c-0.256 0.133-0.536 0.2-0.839 0.2zM13.613 27.713c0.272 0 0.482-0.102 0.631-0.306s0.223-0.515 0.223-0.933c0-0.329-0.052-0.622-0.157-0.878s-0.248-0.455-0.431-0.596-0.387-0.212-0.612-0.212c-0.267 0-0.473 0.099-0.619 0.298s-0.22 0.489-0.22 0.87c0 0.324 0.051 0.621 0.153 0.89s0.242 0.481 0.42 0.635c0.178 0.154 0.382 0.231 0.612 0.231z"></path>
            <path d="M17.527 24.663c0.115 0 0.226 0.034 0.333 0.102s0.161 0.149 0.161 0.243c0 0.073-0.025 0.135-0.074 0.184s-0.116 0.074-0.2 0.074c-0.052 0-0.097-0.011-0.133-0.031s-0.078-0.052-0.125-0.094c-0.052-0.042-0.098-0.073-0.137-0.094s-0.087-0.031-0.145-0.031c-0.068 0-0.137 0.026-0.208 0.078s-0.184 0.167-0.341 0.345v1.686c0 0.152 0.020 0.265 0.059 0.341s0.111 0.128 0.216 0.157c0.105 0.029 0.264 0.043 0.478 0.043 0.016 0 0.023 0.016 0.023 0.047s-0.008 0.047-0.023 0.047c-0.173 0-0.311-0.003-0.416-0.008l-0.588-0.008-0.423 0.008c-0.073 0.005-0.173 0.008-0.298 0.008-0.016 0-0.024-0.016-0.024-0.047s0.008-0.047 0.024-0.047c0.136 0 0.236-0.014 0.302-0.043s0.11-0.081 0.133-0.157 0.035-0.189 0.035-0.341v-1.537c0-0.173-0.021-0.298-0.063-0.376s-0.11-0.118-0.204-0.118c-0.078 0-0.217 0.039-0.416 0.118h-0.008c-0.021 0-0.037-0.012-0.047-0.035s-0.005-0.041 0.016-0.051l0.941-0.455 0.047-0.008c0.052 0 0.103 0.059 0.153 0.177s0.077 0.27 0.082 0.459c0.214-0.246 0.384-0.413 0.51-0.502s0.246-0.133 0.361-0.133z"></path>
            <path d="M28.866 27.094c0 0.146 0.014 0.253 0.043 0.322s0.084 0.114 0.165 0.137c0.081 0.024 0.21 0.035 0.388 0.035h0.753c0.314 0 0.571-0.095 0.772-0.286s0.333-0.451 0.396-0.78c0-0.016 0.014-0.022 0.043-0.020s0.043 0.012 0.043 0.027c-0.047 0.444-0.071 0.816-0.071 1.114 0 0.042-0.008 0.072-0.024 0.090s-0.047 0.027-0.094 0.027h-3.639c-0.010 0-0.016-0.016-0.016-0.047s0.005-0.047 0.016-0.047c0.194 0 0.335-0.013 0.423-0.039s0.149-0.077 0.18-0.153c0.031-0.076 0.047-0.192 0.047-0.349v-3.631c0-0.157-0.016-0.272-0.047-0.345s-0.091-0.124-0.18-0.153c-0.089-0.029-0.23-0.043-0.423-0.043-0.010 0-0.016-0.016-0.016-0.047s0.005-0.047 0.016-0.047l0.392 0.008c0.22 0.010 0.4 0.016 0.541 0.016 0.152 0 0.337-0.005 0.557-0.016l0.384-0.008c0.010 0 0.016 0.016 0.016 0.047s-0.005 0.047-0.016 0.047c-0.188 0-0.328 0.014-0.42 0.043s-0.153 0.081-0.184 0.157c-0.031 0.076-0.047 0.192-0.047 0.349v3.592z"></path>
            <path d="M34.426 27.305c0.016 0 0.030 0.009 0.043 0.027s0.014 0.035 0.004 0.051c-0.35 0.314-0.737 0.47-1.161 0.47-0.308 0-0.572-0.069-0.792-0.208s-0.387-0.324-0.502-0.557c-0.115-0.233-0.173-0.482-0.173-0.749 0-0.308 0.075-0.591 0.224-0.847s0.352-0.459 0.608-0.608c0.256-0.149 0.538-0.224 0.847-0.224 0.303 0 0.535 0.077 0.694 0.231s0.239 0.375 0.239 0.663c0 0.141-0.031 0.212-0.094 0.212l-1.937 0.008c-0.010 0.115-0.016 0.204-0.016 0.267 0 0.455 0.107 0.821 0.322 1.098s0.518 0.416 0.91 0.416c0.157 0 0.289-0.020 0.396-0.059s0.234-0.103 0.38-0.192h0.008zM33.257 24.819c-0.22 0-0.4 0.075-0.541 0.224s-0.233 0.357-0.274 0.623l1.427-0.031c0-0.267-0.054-0.469-0.161-0.608s-0.257-0.208-0.451-0.208z"></path>
            <path d="M36.543 27.854c-0.34 0-0.625-0.075-0.855-0.224s-0.401-0.341-0.514-0.576c-0.112-0.235-0.169-0.484-0.169-0.745 0-0.335 0.086-0.626 0.259-0.874s0.392-0.439 0.659-0.572 0.541-0.2 0.823-0.2c0.235 0 0.448 0.047 0.639 0.141s0.286 0.212 0.286 0.353c0 0.078-0.027 0.144-0.082 0.196s-0.127 0.078-0.216 0.078c-0.167 0-0.293-0.094-0.376-0.282-0.057-0.115-0.124-0.199-0.2-0.251s-0.184-0.078-0.325-0.078c-0.282 0-0.502 0.114-0.659 0.341s-0.235 0.529-0.235 0.906c0 0.439 0.107 0.799 0.322 1.078s0.541 0.42 0.98 0.42c0.298 0 0.559-0.084 0.784-0.251h0.015c0.016 0 0.030 0.008 0.043 0.024s0.012 0.029-0.004 0.039c-0.183 0.167-0.367 0.289-0.553 0.365s-0.393 0.114-0.623 0.114z"></path>
            <path d="M41.735 27.666c0.015 0 0.023 0.016 0.023 0.047s-0.008 0.047-0.023 0.047c-0.131 0-0.233-0.003-0.306-0.008l-0.424-0.008-0.439 0.008c-0.073 0.005-0.17 0.008-0.29 0.008-0.015 0-0.023-0.016-0.023-0.047s0.008-0.047 0.023-0.047c0.194 0 0.322-0.035 0.384-0.106s0.094-0.216 0.094-0.435v-1.223c0-0.308-0.058-0.536-0.172-0.682s-0.293-0.22-0.533-0.22c-0.157 0-0.315 0.041-0.474 0.122s-0.305 0.192-0.435 0.333v1.67c0 0.22 0.031 0.365 0.094 0.435s0.194 0.106 0.392 0.106c0.016 0 0.024 0.016 0.024 0.047s-0.008 0.047-0.024 0.047c-0.131 0-0.233-0.003-0.306-0.008l-0.424-0.008-0.439 0.008c-0.073 0.005-0.17 0.008-0.29 0.008-0.016 0-0.023-0.016-0.023-0.047s0.008-0.047 0.023-0.047c0.194 0 0.322-0.035 0.384-0.106s0.094-0.216 0.094-0.435v-4.039c0-0.188-0.018-0.324-0.055-0.408s-0.099-0.125-0.188-0.125c-0.073 0-0.188 0.037-0.345 0.11h-0.008c-0.021 0-0.038-0.013-0.051-0.039s-0.009-0.044 0.012-0.055l1.027-0.494h0.024c0.021 0 0.039 0.008 0.055 0.024s0.024 0.031 0.024 0.047v3.168c0.382-0.444 0.784-0.667 1.208-0.667 0.287 0 0.51 0.084 0.666 0.251s0.235 0.405 0.235 0.714v1.514c0 0.22 0.031 0.365 0.094 0.435s0.194 0.106 0.392 0.106z"></path>
            <path d="M44.746 27.305c0.015 0 0.030 0.009 0.043 0.027s0.014 0.035 0.004 0.051c-0.35 0.314-0.737 0.47-1.161 0.47-0.309 0-0.573-0.069-0.792-0.208s-0.387-0.324-0.502-0.557c-0.115-0.233-0.173-0.482-0.173-0.749 0-0.308 0.075-0.591 0.224-0.847s0.352-0.459 0.608-0.608c0.256-0.149 0.538-0.224 0.847-0.224 0.303 0 0.535 0.077 0.694 0.231s0.239 0.375 0.239 0.663c0 0.141-0.031 0.212-0.094 0.212l-1.937 0.008c-0.011 0.115-0.016 0.204-0.016 0.267 0 0.455 0.107 0.821 0.322 1.098s0.518 0.416 0.91 0.416c0.157 0 0.289-0.020 0.396-0.059s0.234-0.103 0.381-0.192h0.008zM43.578 24.819c-0.219 0-0.4 0.075-0.541 0.224s-0.233 0.357-0.274 0.623l1.427-0.031c0-0.267-0.054-0.469-0.161-0.608s-0.258-0.208-0.451-0.208z"></path>
            <path d="M24.545 25.387c-0.023 0.056-0.047 0.125-0.070 0.208-0.141 0.491-0.316 0.899-0.525 1.223 0.319 0.23 0.62 0.418 0.902 0.565s0.518 0.24 0.706 0.282c0.021 0.005 0.030 0.022 0.027 0.051s-0.012 0.043-0.027 0.043h-0.925c-0.22 0-0.559-0.175-1.020-0.525-0.413 0.413-0.936 0.619-1.568 0.619-0.329 0-0.606-0.054-0.831-0.161s-0.391-0.25-0.498-0.427c-0.107-0.178-0.161-0.369-0.161-0.573 0-0.293 0.093-0.549 0.278-0.768s0.451-0.455 0.796-0.706c-0.094-0.141-0.17-0.272-0.227-0.392-0.152-0.319-0.227-0.604-0.227-0.855 0-0.235 0.056-0.45 0.169-0.643s0.269-0.348 0.47-0.463c0.201-0.115 0.435-0.173 0.702-0.173 0.261 0 0.484 0.061 0.667 0.184s0.274 0.32 0.274 0.592c0 0.204-0.052 0.388-0.157 0.553s-0.233 0.308-0.384 0.431c-0.152 0.123-0.358 0.271-0.619 0.443l-0.141 0.094c0.387 0.596 0.944 1.174 1.67 1.733 0.152-0.293 0.227-0.622 0.227-0.988 0-0.209-0.040-0.365-0.122-0.467-0.043-0.055-0.107-0.095-0.19-0.12-0.38-0.019-0.646 0.207-0.488 0.069 0.203-0.177 0.541-0.737 1.113-0.463 0.87 0.416 1.263-0.289 1.217-0.208-0.040 0.069-0.247 0.942-1.036 0.84zM22.444 27.595c0.413 0 0.768-0.149 1.067-0.447-0.068-0.047-0.128-0.094-0.18-0.141-0.314-0.251-0.613-0.523-0.898-0.816s-0.527-0.583-0.725-0.87c-0.188 0.157-0.335 0.32-0.439 0.49s-0.157 0.362-0.157 0.576c0 0.214 0.056 0.414 0.169 0.6s0.271 0.333 0.474 0.443c0.204 0.11 0.434 0.165 0.69 0.165zM21.675 23.58c0 0.408 0.139 0.842 0.416 1.302 0.267-0.209 0.472-0.412 0.616-0.608s0.216-0.419 0.216-0.67c0-0.23-0.060-0.41-0.18-0.541s-0.282-0.196-0.486-0.196c-0.387 0-0.58 0.238-0.58 0.714z"></path>
        </symbol>
        <symbol id="title-symbol" viewBox="0 0 31 32">
            <path d="M30.146 0.132c0.004-1.642 0.253 12.556-16.847 13.909-11.234 0.89-11.433 12.389-12.973 16.87-1.54 4.486 2.313-6.294 12.952-7.038 23.198-1.612 16.864-22.104 16.868-23.741z"></path>
        </symbol>
        <symbol id="info-bullet" viewBox="0 0 30 32">
            <path fill="#f56f70" style="fill: var(--color1, #f56f70)" d="M11.734 6.306c-0.441 4.697-3.057 8.903-7.873 10.4-0.466 0.074-0.931 0.154-1.39 0.257-0.33 0.074-1.186 0.263-1.302 0.303-1.063 0.389-0.966 1.36-0.939 1.549 0.013 0.086 0.245 1.383 1.655 1.217 0.934-0.109 1.818-0.291 2.651-0.537 0.234-0.029 0.469-0.063 0.704-0.091 2.045-0.269 4.474-0.509 5.993 1.12 0.41 0.44 0.658 1.326 0.891 2.286 0.431 1.783 0.643 3.857 0.724 4.914 0.022 0.291-0.099 1.651 0.045 2.314 0.137 0.634 0.481 1.017 0.784 1.211s0.838 0.406 1.505 0.040c0.278-0.154 1.209-1.206 1.285-1.309 0.51-0.663 0.966-2.24 1.349-3.834 0.274-1.149 0.482-2.32 0.838-2.806 1.705-2.32 6.635-4.549 9.414-4.817 0.761-0.069 1.33-0.731 1.29-1.497-0.040-0.76-0.675-1.36-1.439-1.349-4.971 0.046-9.56-0.44-11.968-5.44-0.605-1.257-1.063-2.646-1.331-4.040 0.115-1.64 0.011-3.314-0.314-4.977-0.265-1.36-1.491-1.223-1.61-1.206-0.247 0.029-1.091 0.189-1.231 1.234-0.015 0.12 0.023 0.954 0.033 1.274 0.022 0.754-0.017 1.514 0.046 2.269 0.042 0.503 0.106 1.006 0.192 1.514zM13.387 11.501c1.818 3.76 4.578 5.577 7.849 6.4h-0.001c-2.042 1.069-3.9 2.406-4.885 3.749-0.374 0.509-0.717 1.531-1.026 2.68-0.167-1.069-0.394-2.206-0.693-3.177-0.34-1.109-0.798-2.029-1.309-2.577-0.986-1.057-2.224-1.646-3.555-1.937 1.593-1.411 2.801-3.171 3.618-5.137z"></path>
        </symbol>
        <symbol id="circle-bullet" viewBox="0 0 32 32">
            <path fill="#f56f70" style="fill: var(--color1, #f56f70)" d="M32 16c0 8.837-7.163 16-16 16s-16-7.163-16-16c0-8.837 7.163-16 16-16s16 7.163 16 16z"></path>
        </symbol>
        <symbol id="hero-arrow" viewBox="0 0 35 32">
            <path fill="#f56f70" style="fill: var(--color1, #f56f70)" d="M22.937 6.056c0.116 0.283 0.217 0.526 0.271 0.654 0.331 0.779 0.918 2.812 1.807 4.086 0.678 0.972 1.533 1.505 2.542 1.018 0.917-0.443 1.304-1.543 1.295-2.942-0.019-3.011-1.799-7.431-2.682-8.627-0.096-0.131-0.28-0.158-0.41-0.062s-0.158 0.279-0.061 0.41c0.847 1.148 2.549 5.392 2.567 8.283 0.007 1.13-0.223 2.053-0.964 2.41-0.731 0.353-1.314-0.121-1.806-0.825-0.865-1.239-1.426-3.221-1.748-3.98-0.202-0.475-0.921-2.31-1.021-2.452-0.124-0.178-0.29-0.136-0.343-0.118-0.041 0.014-0.242 0.097-0.194 0.359 0.693 3.738-0.831 9.953-4.078 14.613-3.217 4.618-8.146 7.71-14.334 5.23-0.15-0.060-0.321 0.013-0.382 0.163s0.013 0.321 0.164 0.381c6.483 2.599 11.662-0.6 15.033-5.438 2.841-4.078 4.383-9.318 4.343-13.162z"></path>
            <path fill="#f56f70" style="fill: var(--color1, #f56f70)" d="M4.008 24.469c0.66-0.206 1.324-0.39 1.968-0.648 1.717-0.686 3.356-1.762 4.557-3.177 0.105-0.124 0.089-0.309-0.034-0.414-0.124-0.105-0.309-0.089-0.414 0.034-1.138 1.344-2.697 2.361-4.327 3.011-0.738 0.294-1.502 0.491-2.256 0.738-0.037 0.013-0.368 0.11-0.432 0.149-0.15 0.091-0.154 0.225-0.148 0.287 0.005 0.052 0.022 0.113 0.071 0.175 0.040 0.051 0.138 0.129 0.292 0.205 0.491 0.247 1.719 0.658 1.914 0.747 2.229 1.018 4.132 2.339 6.17 3.68 0.136 0.089 0.318 0.051 0.407-0.084s0.051-0.317-0.084-0.406c-2.064-1.358-3.993-2.693-6.249-3.723-0.133-0.062-0.891-0.361-1.435-0.575z"></path>
        </symbol>
        <symbol id="hero-lines" viewBox="0 0 33 32">
            <path fill="#f56f70" style="fill: var(--color1, #f56f70)" d="M13.122 27.784c3.719 0.017 7.073 0.901 10.647 1.672 0.698 0.151 1.134 0.826 0.977 1.507s-0.853 1.113-1.551 0.963c-3.389-0.732-6.57-1.596-10.103-1.613-0.715-0.003-1.289-0.573-1.279-1.271 0.006-0.698 0.594-1.262 1.309-1.258z"></path>
            <path fill="#f56f70" style="fill: var(--color1, #f56f70)" d="M8.228 18.958c6.838-4.406 15.117-8.105 23.036-10.167 0.692-0.18 1.399 0.222 1.577 0.896s-0.236 1.368-0.927 1.548c-7.657 1.994-15.664 5.571-22.273 9.832-0.599 0.385-1.401 0.225-1.79-0.357s-0.222-1.368 0.377-1.752z"></path>
            <path fill="#f56f70" style="fill: var(--color1, #f56f70)" d="M2.782 16.077c0.495-5.446 3.416-10.466 6.791-14.698 0.443-0.552 1.256-0.653 1.815-0.227 0.563 0.427 0.66 1.222 0.222 1.775-3.076 3.854-5.8 8.398-6.252 13.358-0.063 0.696-0.693 1.214-1.402 1.156s-1.237-0.669-1.174-1.364z"></path>
        </symbol>
        <symbol id="hero-vector" viewBox="0 0 31 32">
            <path fill="#f56f70" style="fill: var(--color1, #f56f70)" d="M5.166 10.986c-0.158-0.045-1.282-0.365-1.728-0.418-0.577-0.069-1.057 0.024-1.406 0.168-0.563 0.232-0.965 0.618-1.221 1.141-0.173 0.355-0.297 0.808-0.223 1.399 0.043 0.348 0.254 1.038 0.975 1.65 0.494 0.418 1.976 1.354 2.16 1.47 1.308 1.2 2.070 2.409 2.589 4.102 0.555 1.809 1.065 3.208 0.928 5.102-0.057 0.794-0.036 1.588-0.068 2.383-0.074 0.218-0.231 0.7-0.259 0.902-0.057 0.419-0.003 0.78 0.089 1.066 0.17 0.525 0.486 0.925 0.934 1.208 0.308 0.195 0.706 0.357 1.244 0.354 0.802-0.003 1.89-0.406 3.004-1.198 1.509-1.074 3.268-2.96 4.227-3.524 3.11-1.83 7.962-3.484 11.577-3.192 0.234 0.030 0.472 0.058 0.714 0.084 1.159 0.123 2.205-0.701 2.354-1.857s-0.652-2.22-1.805-2.395c-0.243-0.037-0.492-0.066-0.747-0.088-2.639-0.322-4.613-0.849-6.014-2.035-1.449-1.226-2.178-3.143-2.585-6.013-0.3-2.114 0.095-3.843 0.468-5.91 0.112-0.621 0.218-1.241 0.305-1.866 0.036-0.254 0.204-0.843 0.224-1.042 0.028-0.272 0.005-0.485-0.019-0.628-0.173-0.999-0.802-1.423-1.295-1.629-0.416-0.174-0.897-0.242-1.451-0.075-0.219 0.066-0.727 0.21-1.192 0.884-1.253 1.816-2.161 3.89-3.311 5.737-0.896 1.438-1.948 2.736-3.698 3.431-1.473 0.585-3.187 0.757-4.771 0.787zM15.589 11.316c0.019 0.192 0.043 0.386 0.070 0.583 0.596 4.203 1.938 6.888 4.061 8.684l0.072 0.059c-2.046 0.668-3.985 1.53-5.556 2.454-0.647 0.38-1.638 1.288-2.689 2.208 0.054-2.175-0.471-3.902-1.134-6.064-0.507-1.651-1.17-2.987-2.124-4.215 1.116-0.17 2.216-0.438 3.232-0.841 1.691-0.672 2.994-1.67 4.068-2.869z"></path>
        </symbol>
        <symbol id="hero-line" viewBox="0 0 27 32">
            <path fill="#f56f70" style="fill: var(--color1, #f56f70)" d="M12.763 7.55l0.004 0.022c0.015 0.092 0.028 0.187 0.045 0.249 0.231 0.843 0.172 1.831 0.078 2.691-0.227 2.059-0.343 4.13-0.419 6.2-0.021 0.58 0.028 1.162 0.044 1.742 0.005 0.171 0.013 0.342 0.020 0.513 0.004 0.075-0.027 0.231-0.027 0.311-0.001 0.058 0.014 0.101 0.027 0.126 0.034 0.062 0.084 0.088 0.14 0.093 0.036 0.004 0.095 0 0.157-0.062 0.653-0.655 1.21-1.822 1.697-3.138 0.716-1.934 1.29-4.19 1.841-5.548 0.145-0.357 0.315-1.135 0.54-1.782 0.099-0.287 0.205-0.548 0.328-0.719-0.008 0.17-0.037 0.381-0.034 0.501 0.016 0.521-0.049 1.043-0.064 1.563-0.046 1.583 0.782 6.385 1.17 7.932 0.313 1.252 2.769 8.202 5.565 11.452 0.060 0.070 0.165 0.078 0.235 0.018s0.077-0.166 0.018-0.235c-2.763-3.211-5.186-10.079-5.495-11.315-0.383-1.53-1.205-6.277-1.16-7.841 0.015-0.527 0.079-1.056 0.063-1.583-0.006-0.19 0.054-0.588 0.018-0.756-0.020-0.095-0.070-0.152-0.119-0.179-0.060-0.033-0.146-0.048-0.252 0.027-0.174 0.124-0.334 0.383-0.47 0.71-0.283 0.681-0.486 1.668-0.654 2.084-0.552 1.36-1.127 3.62-1.844 5.558-0.4 1.079-0.841 2.058-1.352 2.712-0.007-0.15-0.013-0.299-0.017-0.45-0.017-0.572-0.066-1.146-0.045-1.72 0.077-2.062 0.192-4.125 0.418-6.176 0.099-0.901 0.154-1.934-0.087-2.816-0.034-0.124-0.058-0.381-0.113-0.485-0.036-0.067-0.086-0.103-0.134-0.119-0.059-0.019-0.131-0.019-0.209 0.047-0.319 0.266-0.73 0.845-1.165 1.566-0.986 1.639-2.112 4.019-2.613 4.974-0.337 0.641-0.649 1.299-1.006 1.93-0.018 0.031-0.405 0.601-0.59 0.872-0.085-0.179-0.167-0.452-0.25-0.771-0.291-1.12-0.537-2.79-0.618-3.296-0.156-0.97-0.286-1.941-0.464-2.907-0.281-1.525-0.612-3.038-0.877-4.566-0.015-0.091-0.102-0.151-0.192-0.136s-0.152 0.102-0.136 0.192c0.264 1.529 0.596 3.044 0.878 4.571 0.178 0.963 0.308 1.932 0.463 2.899 0.082 0.51 0.331 2.196 0.625 3.327 0.135 0.518 0.288 0.924 0.431 1.080 0.040 0.043 0.146 0.105 0.267-0.003 0.155-0.138 0.729-1.053 0.754-1.097 0.358-0.633 0.672-1.295 1.011-1.939 0.5-0.951 1.621-3.324 2.604-4.957 0.354-0.588 0.686-1.079 0.964-1.363z"></path>
        </symbol>
        <symbol id="info-arrow" viewBox="0 0 32 32">
            <path fill="#f56f70" style="fill: var(--color1, #f56f70)" d="M2.998 22.388c2.867 0.325 4.353-0.152 5.134-1.092s0.84-2.292 0.896-3.644c0.034-0.935 0.069-1.889 0.302-2.696 0.242-0.842 0.706-1.547 1.608-1.98 0.214-0.098 0.522-0.143 0.898-0.106 0.517 0.029 1.184 0.17 1.944 0.402 2.896 0.838 7.237 2.769 10.102 3.325 0.655 0.137 1.234 0.188 1.691 0.138 0.4-0.051 0.703-0.175 0.859-0.429 0.127-0.206 0.152-0.487 0.087-0.878-0.114-0.659-0.512-1.535-1.241-2.723-0.638-1.039-1.432-1.999-2.097-3.028-1.042-1.608-2.085-3.275-2.777-4.971-0.042-0.112 0.008-0.229 0.114-0.269 0.112-0.057 0.231 0.005 0.273 0.117 0.681 1.673 1.712 3.316 2.74 4.9 0.673 1.013 1.464 1.991 2.105 3.031 0.77 1.241 1.177 2.178 1.294 2.877 0.095 0.498 0.032 0.882-0.141 1.168-0.176 0.286-0.477 0.488-0.876 0.577-0.53 0.121-1.258 0.074-2.113-0.095-2.874-0.559-7.231-2.497-10.137-3.338-0.725-0.22-1.364-0.35-1.854-0.389-0.289-0.026-0.524-0.012-0.695 0.081-0.776 0.362-1.17 0.976-1.382 1.712-0.222 0.772-0.25 1.69-0.288 2.604-0.054 1.431-0.154 2.884-0.988 3.882s-2.424 1.593-5.502 1.232c-0.119-0.004-0.201-0.11-0.189-0.222s0.121-0.208 0.234-0.188z"></path>
            <path fill="#f56f70" style="fill: var(--color1, #f56f70)" d="M2.95 23.013c0.022 0.027 0.085 0.088 0.141 0.127 0.266 0.211 0.698 0.48 0.824 0.564 1.083 0.811 2.336 1.605 3.641 2.069 0.109 0.039 0.167 0.156 0.13 0.259-0.043 0.12-0.162 0.174-0.272 0.135-1.342-0.478-2.629-1.303-3.753-2.109-0.121-0.101-0.561-0.374-0.831-0.586-0.098-0.074-0.177-0.141-0.223-0.195-0.035-0.051-0.055-0.097-0.063-0.138-0.028-0.087-0.017-0.2 0.023-0.301 0.047-0.119 0.135-0.242 0.251-0.355 0.235-0.245 0.598-0.502 0.887-0.709 0.164-0.116 0.306-0.22 0.366-0.295 0.507-0.651 0.534-1.55-0.093-2.469-0.063-0.1-0.040-0.227 0.056-0.29s0.226-0.036 0.295 0.047c0.747 1.116 0.687 2.178 0.075 2.966-0.15 0.198-0.712 0.539-1.114 0.879-0.12 0.112-0.222 0.211-0.287 0.304-0.021 0.031-0.032 0.046-0.046 0.080-0-0-0.007 0.017-0.006 0.017z"></path>
        </symbol>
        <symbol id="info-lines" viewBox="0 0 26 32">
            <path fill="#f56f70" style="fill: var(--color1, #f56f70)" d="M24.47 9.437c-0.067-1.178-0.123-2.344-0.224-3.519-0.021-0.253-0.242-0.439-0.493-0.418-0.253 0.021-0.44 0.243-0.418 0.495 0.1 1.169 0.155 2.325 0.222 3.495 0.015 0.253 0.231 0.445 0.482 0.431 0.253-0.015 0.447-0.231 0.432-0.484z"></path>
            <path fill="#f56f70" style="fill: var(--color1, #f56f70)" d="M16.306 14.781c-2.603-2.669-5.339-5.205-7.997-7.817-0.181-0.177-0.47-0.174-0.647 0.005-0.177 0.181-0.176 0.47 0.005 0.649 2.654 2.607 5.387 5.137 7.983 7.802 0.178 0.182 0.467 0.184 0.647 0.009 0.182-0.178 0.184-0.466 0.009-0.647z"></path>
            <path fill="#f56f70" style="fill: var(--color1, #f56f70)" d="M10.694 26.995c-3.085-0.645-6.193-1.204-9.271-1.884-0.246-0.053-0.49 0.103-0.545 0.348-0.055 0.247 0.102 0.492 0.348 0.546 3.082 0.679 6.193 1.24 9.282 1.884 0.247 0.051 0.49-0.107 0.541-0.354 0.052-0.249-0.107-0.49-0.355-0.542z"></path>
        </symbol>
        <symbol id="benefits-mob-star-1" viewBox="0 0 32 32">
            <path fill="#f56f70" style="fill: var(--color1, #f56f70)" d="M11.583 8.882c0.502 3.814-0.815 7.632-4.372 9.696-0.357 0.144-0.712 0.291-1.059 0.457-0.249 0.119-0.895 0.424-0.98 0.477-0.775 0.502-0.521 1.256-0.466 1.401 0.026 0.066 0.445 1.055 1.537 0.667 0.723-0.256 1.393-0.562 2.010-0.908 0.181-0.065 0.362-0.135 0.543-0.2 1.577-0.584 3.464-1.216 4.967-0.197 0.406 0.275 0.764 0.934 1.123 1.655 0.666 1.339 1.211 2.95 1.467 3.775 0.071 0.228 0.221 1.331 0.455 1.832 0.224 0.479 0.567 0.721 0.843 0.821s0.74 0.171 1.204-0.241c0.193-0.173 0.742-1.178 0.784-1.273 0.285-0.62 0.361-1.956 0.376-3.293 0.010-0.963-0.038-1.932 0.157-2.382 0.934-2.153 4.449-4.819 6.609-5.537 0.593-0.193 0.925-0.823 0.754-1.424-0.17-0.597-0.783-0.959-1.389-0.811-3.944 0.938-7.679 1.385-10.501-2.153-0.709-0.89-1.325-1.91-1.791-2.97-0.206-1.325-0.593-2.637-1.152-3.9-0.457-1.033-1.407-0.702-1.499-0.666-0.191 0.067-0.833 0.348-0.755 1.204 0.009 0.098 0.191 0.754 0.257 1.007 0.155 0.596 0.262 1.207 0.448 1.795 0.124 0.392 0.267 0.78 0.427 1.169zM13.839 12.711c2.128 2.659 4.651 3.603 7.4 3.664l-0 0c-1.43 1.22-2.664 2.62-3.203 3.866-0.205 0.472-0.292 1.347-0.329 2.316-0.327-0.819-0.713-1.682-1.127-2.4-0.471-0.82-1.002-1.468-1.508-1.811-0.976-0.661-2.066-0.905-3.177-0.895 1.010-1.411 1.651-3.029 1.944-4.74z"></path>
        </symbol>
        <symbol id="benefits-mob-star-2" viewBox="0 0 32 32">
            <path fill="#f56f70" style="fill: var(--color1, #f56f70)" d="M16.193 7.933c-1.583 3.241-4.59 5.543-8.44 5.314-0.354-0.073-0.707-0.141-1.064-0.191-0.256-0.036-0.919-0.132-1.013-0.135-0.866-0.009-1.058 0.712-1.090 0.854-0.014 0.065-0.198 1.055 0.856 1.318 0.698 0.175 1.379 0.283 2.041 0.332 0.175 0.043 0.353 0.082 0.528 0.125 1.535 0.36 3.337 0.844 3.984 2.419 0.175 0.425 0.113 1.126 0.020 1.875-0.173 1.392-0.582 2.933-0.809 3.711-0.063 0.215-0.517 1.155-0.593 1.668-0.073 0.491 0.069 0.857 0.234 1.078s0.49 0.516 1.066 0.435c0.24-0.035 1.19-0.536 1.273-0.589 0.544-0.336 1.296-1.342 2-2.379 0.506-0.747 0.971-1.529 1.357-1.781 1.846-1.199 5.974-1.462 8.034-0.904 0.563 0.156 1.149-0.164 1.327-0.723 0.177-0.554-0.116-1.155-0.666-1.353-3.568-1.31-6.72-2.896-7.092-7.123-0.093-1.063-0.046-2.18 0.138-3.249 0.525-1.142 0.903-2.368 1.119-3.645 0.178-1.044-0.736-1.277-0.826-1.297-0.184-0.046-0.831-0.16-1.214 0.551-0.043 0.082-0.241 0.689-0.321 0.92-0.188 0.546-0.421 1.079-0.579 1.635-0.106 0.371-0.195 0.748-0.271 1.135zM15.973 12.095c0.285 3.181 1.769 5.225 3.886 6.697l-0-0c-1.749 0.213-3.439 0.668-4.506 1.363-0.405 0.263-0.926 0.902-1.457 1.64 0.169-0.81 0.314-1.684 0.362-2.46 0.056-0.885-0.023-1.666-0.24-2.197-0.42-1.022-1.146-1.778-2.020-2.345 1.521-0.579 2.86-1.512 3.975-2.698z"></path>
        </symbol>
        <symbol id="benefits-mob-star-3" viewBox="0 0 32 32">
            <path fill="#f56f70" style="fill: var(--color1, #f56f70)" d="M11.204 9.199c0.712 3.727-0.367 7.562-3.753 9.798-0.344 0.162-0.685 0.328-1.016 0.51-0.238 0.131-0.857 0.469-0.938 0.526-0.735 0.538-0.441 1.267-0.379 1.407 0.029 0.063 0.499 1.014 1.551 0.57 0.697-0.293 1.339-0.632 1.928-1.009 0.175-0.075 0.348-0.154 0.523-0.228 1.52-0.666 3.342-1.395 4.88-0.477 0.415 0.248 0.805 0.877 1.2 1.566 0.733 1.281 1.36 2.836 1.66 3.634 0.082 0.22 0.294 1.298 0.553 1.778 0.248 0.459 0.599 0.678 0.877 0.76s0.738 0.126 1.172-0.306c0.18-0.181 0.664-1.202 0.7-1.299 0.246-0.626 0.244-1.947 0.183-3.264-0.045-0.949-0.148-1.9 0.019-2.355 0.797-2.174 4.107-5 6.194-5.83 0.573-0.223 0.864-0.863 0.661-1.446-0.201-0.578-0.826-0.899-1.414-0.719-3.83 1.149-7.484 1.801-10.464-1.522-0.749-0.836-1.414-1.806-1.933-2.823-0.279-1.293-0.734-2.563-1.357-3.775-0.509-0.991-1.426-0.611-1.514-0.571-0.184 0.077-0.8 0.39-0.674 1.229 0.015 0.096 0.231 0.732 0.311 0.977 0.186 0.578 0.326 1.174 0.544 1.742 0.145 0.379 0.307 0.753 0.487 1.127zM13.645 12.841c2.247 2.498 4.786 3.283 7.497 3.186l-0 0c-1.338 1.283-2.474 2.732-2.934 3.99-0.175 0.477-0.211 1.344-0.192 2.3-0.369-0.788-0.798-1.616-1.247-2.299-0.511-0.78-1.071-1.388-1.588-1.698-0.999-0.596-2.087-0.773-3.18-0.7 0.915-1.447 1.454-3.077 1.645-4.779z"></path>
        </symbol>
        <symbol id="benefits-tab-star-1" viewBox="0 0 32 32">
            <path fill="#f56f70" style="fill: var(--color1, #f56f70)" d="M5.599 12.863c-0.138-0.011-1.122-0.094-1.501-0.065-0.49 0.037-0.873 0.192-1.138 0.369-0.429 0.284-0.699 0.67-0.826 1.146-0.086 0.322-0.114 0.718 0.044 1.196 0.093 0.282 0.38 0.82 1.078 1.209 0.478 0.266 1.859 0.8 2.031 0.867 1.281 0.782 2.11 1.66 2.816 2.979 0.756 1.409 1.406 2.486 1.602 4.080 0.082 0.668 0.229 1.323 0.332 1.987-0.026 0.193-0.077 0.618-0.067 0.79 0.021 0.356 0.124 0.647 0.248 0.87 0.226 0.407 0.554 0.687 0.971 0.85 0.287 0.112 0.644 0.181 1.089 0.091 0.664-0.133 1.501-0.645 2.295-1.483 1.077-1.136 2.227-2.988 2.931-3.612 2.281-2.025 6.034-4.188 9.079-4.535 0.199-0.013 0.401-0.029 0.605-0.047 0.981-0.087 1.714-0.941 1.649-1.924s-0.903-1.735-1.887-1.691c-0.208 0.009-0.419 0.025-0.633 0.049-2.241 0.163-3.963 0.048-5.319-0.706-1.402-0.781-2.319-2.251-3.124-4.564-0.594-1.704-0.548-3.202-0.575-4.977-0.008-0.533-0.022-1.064-0.051-1.597-0.011-0.216 0.031-0.732 0.016-0.901-0.021-0.23-0.075-0.403-0.118-0.518-0.306-0.801-0.897-1.049-1.34-1.139-0.373-0.077-0.783-0.054-1.215 0.174-0.171 0.090-0.569 0.292-0.844 0.928-0.743 1.71-1.157 3.578-1.81 5.297-0.508 1.338-1.169 2.586-2.507 3.448-1.126 0.726-2.519 1.147-3.828 1.431zM14.296 11.436c0.047 0.156 0.098 0.313 0.154 0.472 1.18 3.388 2.731 5.396 4.784 6.538l0.069 0.037c-1.588 0.887-3.055 1.919-4.207 2.941-0.474 0.421-1.148 1.335-1.87 2.27-0.31-1.813-1.027-3.159-1.93-4.844-0.69-1.286-1.457-2.286-2.449-3.149 0.898-0.323 1.766-0.725 2.543-1.225 1.292-0.833 2.21-1.873 2.906-3.042z"></path>
        </symbol>
        <symbol id="benefits-tab-star-2" viewBox="0 0 32 32">
            <path fill="#f56f70" style="fill: var(--color1, #f56f70)" d="M13.377 6.649c-0.717 4.296-3.405 7.996-7.94 9.055-0.434 0.037-0.867 0.080-1.297 0.145-0.309 0.047-1.109 0.163-1.219 0.193-1.005 0.287-0.98 1.188-0.968 1.364 0.006 0.080 0.133 1.29 1.444 1.231 0.868-0.038 1.694-0.148 2.477-0.319 0.218-0.011 0.436-0.027 0.654-0.038 1.901-0.112 4.153-0.172 5.444 1.429 0.349 0.432 0.518 1.264 0.669 2.164 0.279 1.67 0.336 3.595 0.341 4.573 0.001 0.27-0.201 1.514-0.112 2.134 0.084 0.593 0.375 0.968 0.642 1.168s0.744 0.429 1.383 0.137c0.266-0.124 1.193-1.030 1.27-1.12 0.514-0.577 1.038-1.999 1.496-3.441 0.329-1.040 0.598-2.104 0.958-2.528 1.724-2.023 6.412-3.748 8.988-3.811 0.706-0.013 1.274-0.585 1.288-1.293 0.014-0.703-0.531-1.297-1.236-1.337-4.581-0.288-8.774-1.039-10.66-5.803-0.474-1.198-0.804-2.507-0.958-3.809 0.215-1.503 0.23-3.051 0.041-4.604-0.153-1.27-1.292-1.225-1.403-1.217-0.229 0.010-1.017 0.101-1.215 1.055-0.022 0.109-0.042 0.88-0.055 1.176-0.029 0.696-0.116 1.393-0.108 2.092 0.005 0.466 0.031 0.933 0.076 1.407zM14.555 11.542c1.425 3.583 3.845 5.439 6.803 6.414h-0c-1.952 0.848-3.751 1.957-4.747 3.128-0.378 0.444-0.761 1.363-1.122 2.4-0.083-0.995-0.216-2.057-0.427-2.972-0.24-1.043-0.6-1.921-1.034-2.46-0.838-1.039-1.939-1.663-3.145-2.020 1.561-1.194 2.79-2.735 3.673-4.491z"></path>
        </symbol>
        <symbol id="benefits-tab-lines" viewBox="0 0 33 32">
            <path fill="#f56f70" style="fill: var(--color1, #f56f70)" d="M15.639 27.212c-0.44 0.271-1.005 0.137-1.262-0.299l-9.621-16.317c-0.257-0.436-0.109-1.009 0.332-1.279s1.005-0.137 1.262 0.299l9.621 16.317c0.257 0.436 0.108 1.009-0.332 1.279z"></path>
            <path fill="#f56f70" style="fill: var(--color1, #f56f70)" d="M24.699 23.636c-0.369 0.328-0.947 0.287-1.292-0.091-1.44-1.578-2.903-3.151-4.372-4.73-3.381-3.634-6.786-7.294-9.98-11.098-0.329-0.392-0.285-0.962 0.098-1.273s0.96-0.246 1.289 0.145c3.162 3.765 6.512 7.367 9.877 10.984 1.476 1.587 2.955 3.177 4.422 4.785 0.345 0.378 0.326 0.95-0.043 1.278z"></path>
            <path fill="#f56f70" style="fill: var(--color1, #f56f70)" d="M12.204 2.527c0.288-0.389 0.86-0.452 1.276-0.141 4.179 3.121 8.469 6.077 12.775 9.043 1.731 1.193 3.465 2.387 5.195 3.595 0.426 0.298 0.55 0.863 0.277 1.262s-0.841 0.482-1.267 0.184c-1.708-1.192-3.428-2.378-5.152-3.565-4.319-2.976-8.659-5.965-12.871-9.111-0.417-0.311-0.521-0.879-0.233-1.268z"></path>
        </symbol>
        <symbol id="benefits-desk-star-1" viewBox="0 0 32 32">
            <path fill="#f56f70" style="fill: var(--color1, #f56f70)" d="M5.561 12.891c-0.137-0.011-1.115-0.093-1.491-0.064-0.487 0.036-0.867 0.191-1.131 0.367-0.426 0.282-0.695 0.666-0.821 1.138-0.085 0.32-0.114 0.713 0.043 1.188 0.092 0.28 0.377 0.814 1.070 1.201 0.475 0.264 1.847 0.795 2.017 0.861 1.272 0.776 2.095 1.649 2.797 2.959 0.751 1.4 1.397 2.47 1.591 4.052 0.082 0.663 0.227 1.314 0.33 1.974-0.026 0.191-0.077 0.614-0.067 0.785 0.021 0.354 0.124 0.643 0.246 0.864 0.225 0.405 0.55 0.683 0.965 0.844 0.285 0.111 0.64 0.18 1.082 0.090 0.66-0.132 1.491-0.641 2.28-1.473 1.069-1.129 2.212-2.968 2.911-3.588 2.265-2.011 5.994-4.16 9.018-4.505 0.198-0.013 0.398-0.029 0.601-0.047 0.975-0.086 1.703-0.935 1.638-1.911s-0.897-1.723-1.874-1.68c-0.207 0.009-0.416 0.025-0.629 0.048-2.226 0.162-3.937 0.048-5.283-0.702-1.392-0.775-2.303-2.236-3.103-4.534-0.59-1.693-0.544-3.181-0.572-4.943-0.008-0.53-0.022-1.057-0.051-1.586-0.011-0.215 0.031-0.727 0.016-0.895-0.021-0.229-0.074-0.4-0.118-0.514-0.304-0.795-0.891-1.042-1.331-1.132-0.37-0.076-0.778-0.054-1.207 0.173-0.17 0.090-0.565 0.29-0.838 0.921-0.738 1.699-1.149 3.554-1.798 5.262-0.505 1.329-1.161 2.569-2.49 3.425-1.119 0.721-2.502 1.14-3.802 1.421zM14.199 11.473c0.047 0.155 0.098 0.311 0.153 0.469 1.172 3.365 2.712 5.359 4.752 6.494l0.069 0.037c-1.577 0.881-3.035 1.906-4.178 2.921-0.471 0.418-1.141 1.326-1.857 2.254-0.308-1.801-1.020-3.137-1.917-4.811-0.685-1.277-1.448-2.271-2.432-3.127 0.892-0.321 1.754-0.72 2.525-1.216 1.284-0.827 2.195-1.86 2.886-3.022z"></path>
        </symbol>
        <symbol id="benefits-desk-star-2" viewBox="0 0 32 32">
            <path fill="#f56f70" style="fill: var(--color1, #f56f70)" d="M16.102 7.982c-1.593 3.261-4.618 5.577-8.491 5.346-0.356-0.073-0.712-0.142-1.070-0.193-0.257-0.036-0.925-0.133-1.019-0.136-0.871-0.009-1.064 0.716-1.097 0.859-0.014 0.065-0.2 1.062 0.861 1.326 0.702 0.176 1.388 0.284 2.054 0.334 0.176 0.043 0.355 0.082 0.532 0.125 1.545 0.362 3.358 0.849 4.008 2.434 0.176 0.428 0.114 1.133 0.020 1.887-0.174 1.4-0.585 2.95-0.814 3.733-0.063 0.216-0.52 1.162-0.597 1.678-0.074 0.494 0.070 0.863 0.235 1.085s0.493 0.52 1.072 0.438c0.242-0.036 1.197-0.539 1.28-0.593 0.547-0.338 1.303-1.35 2.012-2.393 0.509-0.752 0.977-1.539 1.365-1.791 1.857-1.207 6.011-1.471 8.083-0.91 0.566 0.157 1.156-0.165 1.335-0.727 0.178-0.558-0.116-1.162-0.67-1.362-3.59-1.318-6.761-2.914-7.135-7.166-0.094-1.069-0.047-2.193 0.139-3.269 0.528-1.149 0.908-2.382 1.126-3.667 0.179-1.051-0.741-1.285-0.831-1.305-0.185-0.046-0.836-0.161-1.221 0.554-0.044 0.082-0.243 0.693-0.323 0.926-0.189 0.549-0.423 1.085-0.583 1.645-0.107 0.373-0.197 0.753-0.273 1.142zM15.88 12.169c0.287 3.2 1.779 5.257 3.91 6.738l-0-0c-1.76 0.214-3.46 0.672-4.534 1.371-0.407 0.265-0.932 0.907-1.466 1.65 0.17-0.815 0.316-1.694 0.365-2.475 0.056-0.89-0.023-1.677-0.242-2.21-0.423-1.029-1.154-1.788-2.032-2.36 1.53-0.583 2.877-1.521 3.999-2.714z"></path>
        </symbol>
        <symbol id="benefits-desk-lines-1" viewBox="0 0 34 32">
            <path fill="#f56f70" style="fill: var(--color1, #f56f70)" d="M5.244 12.354c-0.148-0.51 0.138-1.033 0.64-1.169l18.778-5.088c0.502-0.136 1.028 0.167 1.177 0.677s-0.138 1.033-0.64 1.169l-18.778 5.088c-0.502 0.136-1.028-0.167-1.177-0.677z"></path>
            <path fill="#f56f70" style="fill: var(--color1, #f56f70)" d="M6.32 22.299c-0.224-0.454-0.027-1.016 0.442-1.255 1.955-0.996 3.911-2.018 5.874-3.043 4.519-2.359 9.071-4.736 13.707-6.864 0.477-0.219 1.030-0.020 1.234 0.444s-0.017 1.018-0.495 1.237c-4.589 2.107-9.068 4.445-13.566 6.793-1.973 1.030-3.95 2.062-5.942 3.078-0.468 0.239-1.030 0.064-1.254-0.391z"></path>
            <path fill="#f56f70" style="fill: var(--color1, #f56f70)" d="M30.625 15.669c0.307 0.391 0.214 0.974-0.208 1.302-4.229 3.29-8.323 6.734-12.433 10.191-1.652 1.39-3.307 2.782-4.974 4.167-0.411 0.341-1.004 0.31-1.325-0.070s-0.248-0.964 0.162-1.305c1.645-1.367 3.287-2.748 4.933-4.133 4.122-3.468 8.264-6.952 12.526-10.268 0.422-0.328 1.012-0.277 1.319 0.114z"></path>
        </symbol>
        <symbol id="benefits-desk-lines-2" viewBox="0 0 32 32">
            <path fill="#f56f70" style="fill: var(--color1, #f56f70)" d="M26.831 11.273c-8.89-7.888-20.379-5.214-25.002-2.917-0.426 0.212-0.603 0.716-0.397 1.127s0.72 0.572 1.145 0.361c4.305-2.139 14.93-4.554 23.083 2.68 0.346 0.307 0.888 0.276 1.211-0.069s0.304-0.874-0.042-1.181z"></path>
            <path fill="#f56f70" style="fill: var(--color1, #f56f70)" d="M25.509 18.528c-5.238-7.558-14.119-7.572-17.887-6.657-0.455 0.11-0.734 0.568-0.623 1.023s0.568 0.734 1.023 0.623c3.43-0.832 11.425-0.764 16.096 5.976 0.266 0.384 0.794 0.48 1.178 0.214s0.48-0.794 0.214-1.178z"></path>
            <path fill="#f56f70" style="fill: var(--color1, #f56f70)" d="M20.305 26.363c-1.946-6.938-8.514-9.211-11.532-9.497-0.466-0.044-0.879 0.297-0.923 0.763s0.297 0.879 0.763 0.923c2.67 0.253 8.383 2.289 10.061 8.269 0.126 0.45 0.594 0.713 1.044 0.587s0.713-0.594 0.587-1.044z"></path>
        </symbol>
    </defs>
</svg>